<svg width="14" height="15" viewBox="0 0 14 15" fill="none" xmlns="http://www.w3.org/2000/svg">
<g id="formkit:add">
<path id="Vector" d="M7 13.625C3.6225 13.625 0.875 10.8775 0.875 7.5C0.875 4.1225 3.6225 1.375 7 1.375C10.3775 1.375 13.125 4.1225 13.125 7.5C13.125 10.8775 10.3775 13.625 7 13.625ZM7 2.25C4.10375 2.25 1.75 4.60375 1.75 7.5C1.75 10.3962 4.10375 12.75 7 12.75C9.89625 12.75 12.25 10.3962 12.25 7.5C12.25 4.60375 9.89625 2.25 7 2.25Z" fill="#81818F"/>
<path id="Vector_2" d="M7 10.5625C6.755 10.5625 6.5625 10.37 6.5625 10.125V4.875C6.5625 4.63 6.755 4.4375 7 4.4375C7.245 4.4375 7.4375 4.63 7.4375 4.875V10.125C7.4375 10.37 7.245 10.5625 7 10.5625Z" fill="#81818F"/>
<path id="Vector_3" d="M9.625 7.9375H4.375C4.13 7.9375 3.9375 7.745 3.9375 7.5C3.9375 7.255 4.13 7.0625 4.375 7.0625H9.625C9.87 7.0625 10.0625 7.255 10.0625 7.5C10.0625 7.745 9.87 7.9375 9.625 7.9375Z" fill="#81818F"/>
</g>
</svg>
