<svg width="65" height="64" viewBox="0 0 65 64" fill="none" xmlns="http://www.w3.org/2000/svg">
<g id="System/Checkmark">
<path id="Union" fill-rule="evenodd" clip-rule="evenodd" d="M59.1668 32C59.1668 46.7276 47.2277 58.6667 32.5002 58.6667C17.7726 58.6667 5.83348 46.7276 5.83349 32C5.83349 17.2724 17.7726 5.33335 32.5002 5.33335C47.2278 5.33336 59.1668 17.2724 59.1668 32ZM53.8335 32C53.8335 43.7821 44.2822 53.3333 32.5002 53.3333C20.7181 53.3333 11.1668 43.7821 11.1668 32C11.1668 20.2179 20.7181 10.6667 32.5002 10.6667C44.2822 10.6667 53.8335 20.2179 53.8335 32ZM44.9055 27.1256L29.2575 42.7762C28.7375 43.2962 27.3722 43.5576 27.3722 43.5576C27.3722 43.5576 26.0069 43.2962 25.4869 42.7762L18.6069 35.8989C17.5642 34.8562 17.5642 33.1709 18.6069 32.1283C19.6469 31.0856 21.3349 31.0856 22.3775 32.1283L27.3722 37.1203L41.1349 23.3549C42.1775 22.3123 43.8629 22.3123 44.9055 23.3549C45.9482 24.3976 45.9482 26.0856 44.9055 27.1256Z" fill="#616EDD"/>
</g>
</svg>
