<svg width="21" height="22" viewBox="0 0 21 22" fill="none" xmlns="http://www.w3.org/2000/svg">
<g id="icon-park-solid:check-one">
<g id="Mask group">
<mask id="mask0_301_2971" style="mask-type:luminance" maskUnits="userSpaceOnUse" x="1" y="2" width="19" height="18">
<g id="Group">
<g id="Group_2">
<path id="Vector" d="M10.5 19.75C11.6493 19.7515 12.7875 19.5258 13.8493 19.086C14.9111 18.6462 15.8755 18.0009 16.6871 17.1871C17.5009 16.3755 18.1462 15.4111 18.586 14.3493C19.0258 13.2875 19.2515 12.1493 19.25 11C19.2515 9.85073 19.0258 8.71249 18.586 7.65069C18.1462 6.5889 17.5008 5.62449 16.6871 4.81288C15.8755 3.99914 14.9111 3.35382 13.8493 2.91399C12.7875 2.47417 11.6493 2.24852 10.5 2.25001C9.35073 2.24854 8.21249 2.47421 7.15069 2.91403C6.0889 3.35385 5.12449 3.99916 4.31288 4.81288C3.49916 5.62449 2.85385 6.5889 2.41403 7.65069C1.97421 8.71249 1.74854 9.85073 1.75001 11C1.74852 12.1493 1.97417 13.2875 2.41399 14.3493C2.85382 15.4111 3.49914 16.3755 4.31288 17.1871C5.12449 18.0008 6.0889 18.6462 7.15069 19.086C8.21249 19.5258 9.35073 19.7515 10.5 19.75Z" fill="white"/>
<path id="Vector_2" d="M7 11L9.625 13.625L14.875 8.375" stroke="black" stroke-linecap="round" stroke-linejoin="round"/>
</g>
</g>
</mask>
<g mask="url(#mask0_301_2971)">
<path id="Vector_3" d="M0 0.5H21V21.5H0V0.5Z" fill="#616EDD"/>
</g>
</g>
</g>
</svg>
