<svg width="14" height="15" viewBox="0 0 14 15" fill="none" xmlns="http://www.w3.org/2000/svg">
<g id="tabler:clipboard">
<g id="Group">
<path id="Vector" d="M5.25033 3.41602H4.08366C3.77424 3.41602 3.47749 3.53893 3.2587 3.75772C3.03991 3.97652 2.91699 4.27326 2.91699 4.58268V11.5827C2.91699 11.8921 3.03991 12.1888 3.2587 12.4076C3.47749 12.6264 3.77424 12.7493 4.08366 12.7493H9.91699C10.2264 12.7493 10.5232 12.6264 10.742 12.4076C10.9607 12.1888 11.0837 11.8921 11.0837 11.5827V4.58268C11.0837 4.27326 10.9607 3.97652 10.742 3.75772C10.5232 3.53893 10.2264 3.41602 9.91699 3.41602H8.75033" stroke="#81818F" stroke-width="1.25" stroke-linecap="round" stroke-linejoin="round"/>
<path id="Vector_2" d="M5.25 3.41667C5.25 3.10725 5.37292 2.8105 5.59171 2.59171C5.8105 2.37292 6.10725 2.25 6.41667 2.25H7.58333C7.89275 2.25 8.1895 2.37292 8.40829 2.59171C8.62708 2.8105 8.75 3.10725 8.75 3.41667C8.75 3.72609 8.62708 4.02283 8.40829 4.24162C8.1895 4.46042 7.89275 4.58333 7.58333 4.58333H6.41667C6.10725 4.58333 5.8105 4.46042 5.59171 4.24162C5.37292 4.02283 5.25 3.72609 5.25 3.41667Z" stroke="#81818F" stroke-width="1.25" stroke-linecap="round" stroke-linejoin="round"/>
</g>
</g>
</svg>
