<svg width="21" height="21" viewBox="0 0 21 21" fill="none" xmlns="http://www.w3.org/2000/svg">
<g id="mingcute:delete-2-line" clip-path="url(#clip0_326_3962)">
<g id="Group">
<path id="Vector" d="M12.495 1.75C12.8623 1.7501 13.2202 1.86575 13.5181 2.08058C13.8161 2.29541 14.0388 2.59853 14.1549 2.947L14.63 4.375H17.5C17.7321 4.375 17.9546 4.46719 18.1187 4.63128C18.2828 4.79538 18.375 5.01794 18.375 5.25C18.375 5.48206 18.2828 5.70462 18.1187 5.86872C17.9546 6.03281 17.7321 6.125 17.5 6.125L17.4974 6.18713L16.7387 16.8123C16.6914 17.4743 16.395 18.0938 15.9093 18.5461C15.4235 18.9984 14.7845 19.2499 14.1208 19.25H6.87925C6.21552 19.2499 5.57647 18.9984 5.09072 18.5461C4.60497 18.0938 4.3086 17.4743 4.26125 16.8123L3.50262 6.18625C3.50104 6.16587 3.50017 6.14544 3.5 6.125C3.26794 6.125 3.04538 6.03281 2.88128 5.86872C2.71719 5.70462 2.625 5.48206 2.625 5.25C2.625 5.01794 2.71719 4.79538 2.88128 4.63128C3.04538 4.46719 3.26794 4.375 3.5 4.375H6.37L6.84513 2.947C6.96124 2.59839 7.18413 2.29517 7.48221 2.08033C7.78029 1.86548 8.13844 1.74991 8.50587 1.75H12.495ZM15.7474 6.125H5.25262L6.00687 16.6871C6.02258 16.9078 6.1213 17.1143 6.28316 17.2652C6.44503 17.416 6.65801 17.4999 6.87925 17.5H14.1208C14.342 17.4999 14.555 17.416 14.7168 17.2652C14.8787 17.1143 14.9774 16.9078 14.9931 16.6871L15.7474 6.125ZM8.75 8.75C8.96432 8.75003 9.17117 8.82871 9.33133 8.97113C9.49148 9.11354 9.5938 9.30978 9.61888 9.52263L9.625 9.625V14C9.62475 14.223 9.53936 14.4375 9.38626 14.5997C9.23316 14.7619 9.02392 14.8595 8.80128 14.8725C8.57864 14.8856 8.35942 14.8132 8.1884 14.67C8.01737 14.5269 7.90747 14.3238 7.88112 14.1024L7.875 14V9.625C7.875 9.39294 7.96719 9.17038 8.13128 9.00628C8.29538 8.84219 8.51794 8.75 8.75 8.75ZM12.25 8.75C12.4821 8.75 12.7046 8.84219 12.8687 9.00628C13.0328 9.17038 13.125 9.39294 13.125 9.625V14C13.125 14.2321 13.0328 14.4546 12.8687 14.6187C12.7046 14.7828 12.4821 14.875 12.25 14.875C12.0179 14.875 11.7954 14.7828 11.6313 14.6187C11.4672 14.4546 11.375 14.2321 11.375 14V9.625C11.375 9.39294 11.4672 9.17038 11.6313 9.00628C11.7954 8.84219 12.0179 8.75 12.25 8.75ZM12.495 3.5H8.505L8.21362 4.375H12.7864L12.495 3.5Z" fill="#81818F"/>
</g>
</g>
<defs>
<clipPath id="clip0_326_3962">
<rect width="21" height="21" fill="white"/>
</clipPath>
</defs>
</svg>
