<svg width="21" height="21" viewBox="0 0 21 21" fill="none" xmlns="http://www.w3.org/2000/svg">
<g id="ic:round-error">
<path id="Vector" d="M10.5 1.75C5.67 1.75 1.75 5.67 1.75 10.5C1.75 15.33 5.67 19.25 10.5 19.25C15.33 19.25 19.25 15.33 19.25 10.5C19.25 5.67 15.33 1.75 10.5 1.75ZM10.5 11.375C10.0188 11.375 9.625 10.9812 9.625 10.5V7C9.625 6.51875 10.0188 6.125 10.5 6.125C10.9812 6.125 11.375 6.51875 11.375 7V10.5C11.375 10.9812 10.9812 11.375 10.5 11.375ZM11.375 14.875H9.625V13.125H11.375V14.875Z" fill="#CC090B"/>
</g>
</svg>
