<svg width="40" height="24" viewBox="0 0 40 24" fill="none" xmlns="http://www.w3.org/2000/svg">
<g id="Frame 1">
<path id="Vector" d="M14.4713 23.3726C14.1316 23.0341 13.8599 22.7633 13.5202 22.4248C12.1614 21.274 10.7346 20.1909 9.37578 19.0401C8.35667 18.2278 7.33757 17.3478 6.25053 16.4678C4.3482 14.9785 2.44587 13.4893 0.475591 12C0.27177 11.8646 0.135881 11.6615 0 11.5262C0.203821 11.4585 0.475584 11.3908 0.679405 11.3908C2.78556 11.3908 4.82379 11.4585 6.92993 11.3231C7.8811 11.2554 8.62845 11.5938 9.30785 12.1354C10.8705 13.4216 12.3652 14.7077 13.9278 15.9262C15.2187 16.9416 16.5096 17.8893 17.8004 18.9048C19.2272 20.0555 20.6539 21.274 22.0807 22.4248C22.2845 22.6279 22.5563 22.7633 22.7602 22.8987C22.828 22.9664 22.828 23.1017 22.8959 23.1695C20.1104 23.3726 17.2569 23.3726 14.4713 23.3726Z" fill="white"/>
<path id="Vector_2" d="M31.4557 18.0246C31.32 18.0246 31.1162 18.0923 30.9802 18.0923C28.7381 18.0923 26.4962 18.0923 24.1862 18.0923C23.5067 18.0923 22.9633 17.8893 22.4197 17.4831C21.4006 16.6708 20.3815 15.8584 19.3624 14.9784C18.0036 13.8953 16.6448 12.7445 15.286 11.6614C13.9271 10.5783 12.5004 9.49524 11.1416 8.34444C10.3263 7.6675 9.51101 6.99057 8.69571 6.38134C8.55982 6.31363 8.49192 6.17824 8.28809 5.97518C8.49192 5.90747 8.6278 5.90747 8.76368 5.90747C11.2095 5.90747 13.6554 5.90747 16.1012 5.90747C16.7127 5.90747 16.9845 6.31363 17.3921 6.58441C18.5471 7.46443 19.6341 8.41214 20.7891 9.35985C22.6236 10.8491 24.5259 12.4061 26.3602 13.8953C27.6512 14.9107 28.874 15.8584 30.165 16.8738C30.5726 17.2123 30.9123 17.5508 31.32 17.8892C31.4557 17.8892 31.4557 17.9569 31.4557 18.0246Z" fill="white"/>
<path id="Vector_3" d="M39.9492 12.4738C39.7454 12.4738 39.6096 12.5415 39.4056 12.5415C36.9599 12.5415 34.5139 12.5415 32.0682 12.5415C31.7963 12.5415 31.5247 12.4061 31.3208 12.2707C30.1658 11.3907 29.0109 10.443 27.8559 9.49527C26.1573 8.1414 24.4587 6.78753 22.8282 5.43366C21.8091 4.62134 20.79 3.74131 19.703 2.92899C18.8197 2.18437 17.8686 1.50743 16.9854 0.695109C17.1212 0.695109 17.3251 0.627411 17.4609 0.627411C19.9747 0.627411 22.4206 0.627411 24.9344 0.627411C25.5459 0.627411 25.8856 1.10127 26.2932 1.37205C27.652 2.38745 29.0109 3.53824 30.3016 4.62134C31.5247 5.63675 32.7475 6.65214 34.0385 7.59985C35.7368 8.95372 37.4354 10.3076 39.1339 11.7292C39.4056 11.9323 39.6775 12.0676 39.9492 12.2707C40.0173 12.3384 40.0173 12.4061 39.9492 12.4738Z" fill="white"/>
</g>
</svg>
