<svg width="12" height="8" viewBox="0 0 12 8" fill="none" xmlns="http://www.w3.org/2000/svg">
<g id="Frame 1">
<path id="Vector" d="M4.3414 7.41162C4.23948 7.31006 4.15796 7.22883 4.05605 7.12729C3.64841 6.78205 3.22038 6.45712 2.81273 6.11189C2.507 5.86819 2.20127 5.60418 1.87516 5.34018C1.30446 4.8934 0.73376 4.44662 0.142677 3.99985C0.081531 3.95923 0.0407643 3.89831 0 3.85769C0.0611462 3.83738 0.142675 3.81707 0.203822 3.81707C0.835667 3.81707 1.44714 3.83738 2.07898 3.79677C2.36433 3.77645 2.58854 3.878 2.79236 4.04046C3.26115 4.42632 3.70955 4.81217 4.17834 5.17771C4.5656 5.48234 4.95287 5.76665 5.34012 6.07127C5.76815 6.41651 6.19617 6.78205 6.6242 7.12729C6.68534 7.18822 6.7669 7.22883 6.82805 7.26944C6.8484 7.28978 6.8484 7.33034 6.86876 7.3507C6.03311 7.41162 5.17706 7.41162 4.3414 7.41162Z" fill="white"/>
<path id="Vector_2" d="M9.43685 5.80727C9.39614 5.80727 9.33499 5.82757 9.29421 5.82757C8.62157 5.82757 7.949 5.82757 7.256 5.82757C7.05214 5.82757 6.88914 5.76665 6.72607 5.6448C6.42033 5.40111 6.11459 5.15741 5.80886 4.8934C5.40122 4.56848 4.99357 4.22323 4.58593 3.89831C4.17829 3.57338 3.75027 3.24845 3.34263 2.90321C3.09804 2.70013 2.85345 2.49705 2.60886 2.31428C2.56809 2.29397 2.54772 2.25335 2.48657 2.19243C2.54772 2.17212 2.58849 2.17212 2.62925 2.17212C3.36301 2.17212 4.09676 2.17212 4.83052 2.17212C5.01396 2.17212 5.09548 2.29397 5.21777 2.3752C5.56427 2.63921 5.89039 2.92352 6.23688 3.20783C6.78721 3.65461 7.35793 4.1217 7.90821 4.56847C8.2955 4.8731 8.66235 5.1574 9.04964 5.46203C9.17192 5.56357 9.27385 5.66511 9.39614 5.76665C9.43685 5.76665 9.43685 5.78696 9.43685 5.80727Z" fill="white"/>
<path id="Vector_3" d="M11.9847 4.14205C11.9236 4.14205 11.8829 4.16236 11.8217 4.16236C11.0879 4.16236 10.3542 4.16236 9.62044 4.16236C9.53887 4.16236 9.45737 4.12174 9.39623 4.08112C9.04973 3.81712 8.70323 3.53281 8.35673 3.24849C7.84716 2.84233 7.33759 2.43617 6.84845 2.03001C6.54271 1.78631 6.23698 1.5223 5.91087 1.27861C5.64589 1.05522 5.36055 0.852141 5.09558 0.608444C5.13635 0.608444 5.19749 0.588135 5.23826 0.588135C5.99239 0.588135 6.72616 0.588135 7.4803 0.588135C7.66373 0.588135 7.76566 0.730292 7.88795 0.811525C8.29559 1.11615 8.70323 1.46138 9.09045 1.78631C9.45737 2.09094 9.82423 2.39555 10.2115 2.67987C10.721 3.08603 11.2306 3.49219 11.7402 3.91866C11.8217 3.97959 11.9032 4.0202 11.9847 4.08112C12.0052 4.10144 12.0052 4.12174 11.9847 4.14205Z" fill="white"/>
</g>
</svg>
