<svg width="14" height="15" viewBox="0 0 14 15" fill="none" xmlns="http://www.w3.org/2000/svg">
<g id="octicon:thumbsup-16" clip-path="url(#clip0_3735_32641)">
<path id="Vector" d="M7.62318 14.1561C8.16647 14.0943 8.69125 13.9465 9.05439 13.5279C9.41397 13.115 9.52149 12.5487 9.52149 11.8934C9.52149 11.5616 9.45954 11.0982 9.4097 10.7301L9.39902 10.6498L10.4115 10.6498C10.8409 10.6498 11.2475 10.5894 11.5992 10.4132C11.9609 10.2327 12.2479 9.93063 12.4088 9.56038C12.7314 8.85116 12.7207 7.82143 12.5427 6.49323L12.5142 6.27577C12.4394 5.71436 12.3753 5.22899 12.2913 4.83102C12.1981 4.38332 12.067 3.97185 11.8157 3.64282C11.2802 2.94141 10.3802 2.83268 9.16547 2.83268C7.84961 2.83268 6.86272 3.06933 6.04103 3.29673C5.92354 3.32871 5.81104 3.36069 5.70281 3.39125C5.23428 3.52343 4.84836 3.63287 4.47454 3.68617C4.3923 3.43776 4.23366 3.22155 4.0212 3.06832C3.80873 2.91509 3.55326 2.83263 3.29112 2.83268H2.57908C2.2486 2.83268 1.93166 2.96371 1.69797 3.19693C1.46429 3.43016 1.33301 3.74648 1.33301 4.07632L1.33301 9.40617C1.33301 10.0927 1.89125 10.6498 2.57908 10.6498H3.29112C3.50946 10.6498 3.72397 10.5926 3.91317 10.4838C4.10237 10.3751 4.25961 10.2186 4.36915 10.0301C4.55286 10.1047 4.78926 10.2206 5.02281 10.3911C5.50059 10.7393 5.96128 11.3043 5.96128 12.2488V12.6041C5.96128 13.4583 6.66905 14.2649 7.62318 14.1561ZM4.5372 4.75143C5.03918 4.68889 5.52693 4.54961 6.01255 4.41174L6.32656 4.32291C7.10695 4.10616 7.98846 3.89794 9.16547 3.89794C10.4429 3.89794 10.7889 4.05642 10.9655 4.28809C11.0702 4.42524 11.162 4.64697 11.2461 5.04848C11.3208 5.40523 11.3799 5.84725 11.4561 6.42003L11.4846 6.63322C11.6626 7.97066 11.6192 8.71755 11.4362 9.11836C11.3765 9.26658 11.2645 9.38791 11.1214 9.45947C10.9733 9.53338 10.7512 9.58312 10.4115 9.58312H9.16547C8.677 9.58312 8.24337 9.99317 8.30674 10.5325C8.32312 10.669 8.34235 10.8097 8.36086 10.949C8.40714 11.2958 8.45342 11.6383 8.45342 11.8927C8.45342 12.4676 8.35089 12.71 8.24836 12.8279C8.15081 12.9402 7.96211 13.044 7.50214 13.0966C7.28354 13.1221 7.02934 12.9289 7.02934 12.6041V12.2488C7.02934 10.8829 6.33296 10.0259 5.65296 9.53053C5.31244 9.2833 4.93621 9.0892 4.5372 8.95491L4.5372 4.75143ZM3.29112 9.58383H2.57908C2.53187 9.58383 2.48659 9.56512 2.45321 9.5318C2.41982 9.49848 2.40107 9.45329 2.40107 9.40617L2.40107 4.07632C2.40107 3.97825 2.48082 3.89865 2.57908 3.89865H3.29112C3.33833 3.89865 3.38361 3.91737 3.41699 3.95069C3.45038 3.98401 3.46913 4.0292 3.46913 4.07632L3.46913 9.40617C3.46913 9.45329 3.45038 9.49848 3.41699 9.5318C3.38361 9.56512 3.33833 9.58383 3.29112 9.58383Z" fill="#81818F"/>
</g>
<defs>
<clipPath id="clip0_3735_32641">
<rect width="14" height="14" fill="white" transform="matrix(-1 0 0 1 14 0.5)"/>
</clipPath>
</defs>
</svg>
