<svg width="14" height="15" viewBox="0 0 14 15" fill="none" xmlns="http://www.w3.org/2000/svg">
<g id="octicon:thumbsup-16">
<path id="Vector" d="M6.37682 1.84386C5.83353 1.90569 5.30875 2.0535 4.94561 2.47207C4.58603 2.88496 4.47851 3.45135 4.47851 4.10656C4.47851 4.43844 4.54046 4.90178 4.5903 5.26989L4.60098 5.3502H3.58846C3.1591 5.3502 2.75252 5.4106 2.40078 5.58684C2.03906 5.76735 1.75211 6.06937 1.59118 6.43962C1.26863 7.14884 1.27931 8.17857 1.45732 9.50677L1.4858 9.72423C1.56057 10.2856 1.62465 10.771 1.70867 11.169C1.80195 11.6167 1.93296 12.0281 2.18432 12.3572C2.71977 13.0586 3.61979 13.1673 4.83453 13.1673C6.15039 13.1673 7.13728 12.9307 7.95897 12.7033C8.07646 12.6713 8.18896 12.6393 8.29719 12.6087C8.76572 12.4766 9.15164 12.3671 9.52546 12.3138C9.6077 12.5622 9.76634 12.7784 9.9788 12.9317C10.1913 13.0849 10.4467 13.1674 10.7089 13.1673H11.4209C11.7514 13.1673 12.0683 13.0363 12.302 12.8031C12.5357 12.5698 12.667 12.2535 12.667 11.9237V6.59383C12.667 5.90734 12.1088 5.3502 11.4209 5.3502H10.7089C10.4905 5.35017 10.276 5.4074 10.0868 5.51616C9.89763 5.62492 9.74039 5.78138 9.63085 5.96988C9.44714 5.89526 9.21074 5.77943 8.97719 5.60887C8.49941 5.26065 8.03872 4.69569 8.03872 3.75124V3.39592C8.03872 2.54172 7.33095 1.73513 6.37682 1.84386ZM9.4628 11.2486C8.96082 11.3111 8.47307 11.4504 7.98745 11.5883L7.67344 11.6771C6.89305 11.8938 6.01154 12.1021 4.83453 12.1021C3.55713 12.1021 3.21108 11.9436 3.03449 11.7119C2.92982 11.5748 2.83797 11.353 2.75395 10.9515C2.67918 10.5948 2.62008 10.1528 2.5439 9.57997L2.51542 9.36678C2.3374 8.02934 2.38084 7.28245 2.56383 6.88164C2.62352 6.73342 2.73545 6.61209 2.87856 6.54053C3.02666 6.46662 3.24882 6.41688 3.58846 6.41688H4.83453C5.323 6.41688 5.75663 6.00683 5.69326 5.46745C5.67688 5.33101 5.65765 5.1903 5.63914 5.05101C5.59286 4.70422 5.54658 4.36169 5.54658 4.10727C5.54658 3.53236 5.64911 3.29003 5.75164 3.17206C5.84919 3.05978 6.03789 2.95602 6.49786 2.90344C6.71646 2.87785 6.97066 3.07115 6.97066 3.39592V3.75124C6.97066 5.1171 7.66704 5.97414 8.34704 6.46947C8.68756 6.7167 9.06379 6.9108 9.4628 7.04509V11.2486ZM10.7089 6.41617H11.4209C11.4681 6.41617 11.5134 6.43488 11.5468 6.4682C11.5802 6.50152 11.5989 6.54671 11.5989 6.59383V11.9237C11.5989 12.0218 11.5192 12.1013 11.4209 12.1013H10.7089C10.6617 12.1013 10.6164 12.0826 10.583 12.0493C10.5496 12.016 10.5309 11.9708 10.5309 11.9237V6.59383C10.5309 6.54671 10.5496 6.50152 10.583 6.4682C10.6164 6.43488 10.6617 6.41617 10.7089 6.41617Z" fill="#81818F"/>
</g>
</svg>
